<svg width="230" height="56" viewBox="0 0 230 56" xmlns="http://www.w3.org/2000/svg">
  <g transform="translate(28,28) scale(0.771)">
    <circle cx="0" cy="0" r="28" fill="none" stroke="#E68556" stroke-width="2.5"/>
    <circle cx="0" cy="0" r="23" fill="none" stroke="#E68556" stroke-width="1.2" opacity="0.4"/>
    <circle cx="0" cy="0" r="7" fill="none" stroke="#E68556" stroke-width="2.5"/>
    <circle cx="0" cy="0" r="3" fill="#E68556"/>
    <line x1="0" y1="-7" x2="0" y2="-23" stroke="#E68556" stroke-width="2" stroke-linecap="round"/>
    <line x1="0" y1="7" x2="0" y2="23" stroke="#E68556" stroke-width="2" stroke-linecap="round"/>
    <line x1="-7" y1="0" x2="-23" y2="0" stroke="#E68556" stroke-width="2" stroke-linecap="round"/>
    <line x1="7" y1="0" x2="23" y2="0" stroke="#E68556" stroke-width="2" stroke-linecap="round"/>
    <line x1="-4.95" y1="-4.95" x2="-16.26" y2="-16.26" stroke="#E68556" stroke-width="2" stroke-linecap="round"/>
    <line x1="4.95" y1="4.95" x2="16.26" y2="16.26" stroke="#E68556" stroke-width="2" stroke-linecap="round"/>
    <line x1="4.95" y1="-4.95" x2="16.26" y2="-16.26" stroke="#E68556" stroke-width="2" stroke-linecap="round"/>
    <line x1="-4.95" y1="4.95" x2="-16.26" y2="16.26" stroke="#E68556" stroke-width="2" stroke-linecap="round"/>
    <line x1="-2" y1="-6.7" x2="-6.7" y2="-22" stroke="#E68556" stroke-width="1.2" stroke-linecap="round" opacity="0.5"/>
    <line x1="2" y1="6.7" x2="6.7" y2="22" stroke="#E68556" stroke-width="1.2" stroke-linecap="round" opacity="0.5"/>
    <line x1="-6.7" y1="2" x2="-22" y2="6.7" stroke="#E68556" stroke-width="1.2" stroke-linecap="round" opacity="0.5"/>
    <line x1="6.7" y1="-2" x2="22" y2="-6.7" stroke="#E68556" stroke-width="1.2" stroke-linecap="round" opacity="0.5"/>
  </g>
  <text
    x="59"
    y="36"
    font-family="Georgia, serif"
    font-size="24"
    font-weight="700"
    fill="#1A1714"
    letter-spacing="-0.5">ChakraSec</text>
</svg>
